<?xml version="1.0" encoding="UTF-8"?>
<svg width="8px" height="8px" viewBox="0 0 8 8" version="1.1" xmlns="http://www.w3.org/2000/svg" xmlns:xlink="http://www.w3.org/1999/xlink">
    <!-- Generator: Sketch 52.5 (67469) - http://www.bohemiancoding.com/sketch -->
    <title>Slice</title>
    <desc>Created with Sketch.</desc>
    <g id="Презентация" stroke="none" stroke-width="1" fill="none" fill-rule="evenodd">
        <g id="Group-10-Copy-5" transform="translate(1.000000, 1.000000)" fill="#008AFF" fill-rule="nonzero" stroke="#505D68" stroke-width="0.5">
            <g id="clock">
                <path d="M2.99890996,0 C3.82704745,0 4.57684761,0.336610169 5.12113945,0.878498789 C5.66325122,1.42271186 6,2.17220339 6,3 C6,3.82779661 5.66325122,4.57728814 5.12113945,5.12150121 C4.57670227,5.66338983 3.82704745,6 2.99890996,6 C2.17077247,6 1.42111765,5.66338983 0.879005886,5.12150121 C0.334568709,4.57728814 0,3.82794189 0,3 C0,2.17220339 0.33442337,1.42271186 0.878860548,0.878498789 C1.42111765,0.336610169 2.17077247,0 2.99890996,0 Z M3.61560773,2.98000285 C3.65701168,2.98000285 3.68992079,3.02141048 3.68992079,3.07186583 C3.68992079,3.12232119 3.65701168,3.16372881 3.61560773,3.16372881 L2.91381418,3.16372881 L2.91167375,3.16372881 C2.88404882,3.16372881 2.85963454,3.14432918 2.84692574,3.11718599 L2.84585552,3.11588181 L2.84478531,3.11327346 L2.84478531,3.11196928 L2.84371509,3.10936093 L2.84264488,3.10675257 L2.84264488,3.1054484 L2.84157466,3.10284004 L2.84050445,3.10153586 L2.84050445,3.09892751 L2.83943423,3.09631916 L2.83943423,3.09501498 L2.83836402,3.09240662 L2.83836402,3.08979827 L2.83836402,3.08849409 L2.83836402,3.08718992 L2.8372938,3.08588574 L2.8372938,3.08327738 L2.8372938,3.08066903 L2.8372938,3.07838672 L2.8372938,3.07708254 L2.8372938,3.07447419 L2.8372938,3.07186583 L2.8372938,1.97603096 C2.8372938,1.9255756 2.87020292,1.88547215 2.91160686,1.88547215 C2.95301081,1.88547215 2.98699014,1.9255756 2.98699014,1.97603096 L2.98699014,2.98000285 L3.61560773,2.98000285 Z M4.89048761,1.10920097 C4.40607514,0.624987893 3.73708306,0.327457627 2.99890996,0.327457627 C2.26073687,0.327457627 1.59174479,0.624842615 1.10733232,1.10920097 C0.625245258,1.59341404 0.325267059,2.26213075 0.325267059,3 C0.325267059,3.73786925 0.62509992,4.40658596 1.10733232,4.89094431 C1.59174479,5.37515738 2.26073687,5.67268765 2.99890996,5.67268765 C3.73708306,5.67268765 4.40607514,5.37515738 4.89048761,4.89094431 C5.37490008,4.40673123 5.67487828,3.73801453 5.67487828,3 C5.67487828,2.26213075 5.37504542,1.59341404 4.89048761,1.10920097 Z" id="Shape"></path>
            </g>
        </g>
    </g>
</svg>