<svg width="28" height="28" viewBox="0 0 28 28" fill="none" xmlns="http://www.w3.org/2000/svg">
<path d="M14 28C21.732 28 28 21.732 28 14C28 6.26801 21.732 0 14 0C6.26801 0 0 6.26801 0 14C0 21.732 6.26801 28 14 28Z" fill="#2D9CDB"/>
<path fill-rule="evenodd" clip-rule="evenodd" d="M12.9048 10.1481C13.0896 9.50575 12.9815 8.88057 12.5626 8.52623L9.66676 6.47227C9.55635 6.394 9.37696 6.4466 9.25726 6.59236C9.12779 6.75001 9.11821 6.95476 9.23615 7.04124L11.5296 8.72394C11.6515 8.82707 11.6357 9.05015 11.4945 9.22215C11.3532 9.39418 11.1398 9.45004 11.0179 9.34695L8.78777 7.58905C8.66991 7.49615 8.46996 7.55107 8.3371 7.71284C8.20425 7.8746 8.1871 8.08409 8.29832 8.18503L10.4039 10.0946C10.5258 10.1977 10.51 10.4208 10.3688 10.5928C10.2275 10.7649 10.0141 10.8207 9.89224 10.7176L7.84815 8.73133C7.74301 8.62917 7.54628 8.67573 7.4169 8.83327C7.29719 8.97903 7.27853 9.16759 7.37431 9.26366L9.88669 11.7846C10.3056 12.1389 10.9309 12.1342 11.5203 11.834C11.6569 11.7644 11.794 11.7243 11.9238 11.713L13.2406 13.0809L8.86081 17.4507L8.85584 17.4558C8.31083 18.022 8.22209 18.8511 8.76718 19.4174C9.31227 19.9835 10.0597 19.8384 10.6046 19.2725L10.6082 19.2687L10.6112 19.2653L14.4749 15.0392L14.4805 15.0459L14.4805 15.046C14.5013 15.0715 14.5221 15.097 14.5452 15.121L18.8776 19.6217C19.3631 20.1261 20.1505 20.1261 20.636 19.6217C21.1214 19.1176 21.1214 18.2995 20.636 17.7954L16.3033 13.2947C16.2628 13.2523 16.2194 13.2148 16.1747 13.1797L16.9421 12.3403C16.9813 12.2993 17.0184 12.2561 17.0526 12.2117C18.0713 12.6109 19.2668 12.3865 20.0856 11.536C20.6829 10.9154 20.9841 10.0572 20.9112 9.18136C20.9033 9.08224 20.8401 8.99655 20.7502 8.96272C20.6601 8.92854 20.5592 8.95185 20.4914 9.022L19.1028 10.4643L17.6969 10.0962L17.2982 8.58972L18.6865 7.14757C18.7546 7.07704 18.7768 6.9721 18.744 6.87864C18.7113 6.78492 18.6289 6.71981 18.5332 6.71108C17.6901 6.6356 16.8639 6.9483 16.2664 7.56893C15.4482 8.4188 15.2316 9.65988 15.6155 10.7177C15.5737 10.7544 15.5322 10.7933 15.4914 10.8351L14.3665 11.9573L14.332 11.9307L12.8588 10.4006C12.8648 10.319 12.88 10.2344 12.9048 10.1481ZM9.20251 18.4974C9.33929 18.6342 9.56096 18.6342 9.69763 18.4974C9.83416 18.3607 9.83416 18.1392 9.69763 18.0025C9.56085 17.8658 9.33916 17.8659 9.20251 18.0025C9.06586 18.1392 9.06586 18.3607 9.20251 18.4974Z" fill="white"/>
</svg>
