<?xml version="1.0" encoding="UTF-8"?>
<svg width="28px" height="28px" viewBox="0 0 28 28" version="1.1" xmlns="http://www.w3.org/2000/svg" xmlns:xlink="http://www.w3.org/1999/xlink">
    <!-- Generator: Sketch 52.2 (67145) - http://www.bohemiancoding.com/sketch -->
    <title>Group 11</title>
    <desc>Created with Sketch.</desc>
    <defs>
        <linearGradient x1="86.0624167%" y1="14.0817199%" x2="26.3815146%" y2="100%" id="linearGradient-1">
            <stop stop-color="#DB6FFF" offset="0%"></stop>
            <stop stop-color="#B43CFF" offset="100%"></stop>
        </linearGradient>
    </defs>
    <g id="Page-1" stroke="none" stroke-width="1" fill="none" fill-rule="evenodd">
        <g id="Рецепт-Copy-8" transform="translate(-491.000000, -1934.000000)" fill-rule="nonzero">
            <g id="Group-8" transform="translate(491.000000, 1934.000000)">
                <g id="Group-2">
                    <g id="Group-11">
                        <circle id="Oval-Copy-24" fill="url(#linearGradient-1)" cx="14" cy="14" r="14"></circle>
                        <g id="Group-4-Copy-11" transform="translate(7.000000, 6.000000)" fill="#FFFFFF">
                            <g id="tools-cross-settings-symbol-for-interface-2">
                                <g id="tools-cross-settings-symbol-for-interface">
                                    <path d="M4.92374355,5.71299505 C4.79397335,5.72429811 4.65691537,5.76438728 4.52023973,5.83401279 C3.93091101,6.13419013 3.30556613,6.13894101 2.88666149,5.78459726 L0.37428318,3.26366487 C0.278508305,3.16758701 0.297166668,2.97903073 0.416873768,2.83326938 C0.546254768,2.6757286 0.742987982,2.62916853 0.84812745,2.7313307 L2.89220893,4.71762727 C3.01407582,4.82071224 3.22746998,4.76485383 3.36875047,4.59282364 C3.51000129,4.42082959 3.52577547,4.19774682 3.40385737,4.09461854 L1.29829609,2.18503195 C1.187075,2.08409382 1.2042243,1.87460483 1.33707723,1.71283647 C1.46993015,1.55106811 1.66988386,1.49614878 1.78774797,1.58905086 L4.01788298,3.34695025 C4.13974987,3.45003522 4.35314404,3.39417682 4.49442453,3.22214663 C4.63567535,3.05015257 4.65144952,2.82706981 4.52953142,2.72394152 L2.23612445,1.04123615 C2.11818711,0.954762971 2.12775945,0.750009419 2.25722948,0.592360244 C2.37693658,0.446598893 2.55632611,0.394002159 2.66673053,0.47226635 L5.56256734,2.52622767 C5.98147198,2.88057142 6.08952618,3.50575236 5.90476888,4.14808803 C5.87994777,4.23438092 5.86476182,4.31903827 5.85879943,4.40058735 L7.33196794,5.93069935 C7.34345595,5.93953973 7.3549615,5.94841218 7.36648393,5.9573161 L8.49139698,4.83506488 C8.53214204,4.79334966 8.57369641,4.7543594 8.61544615,4.71768827 C8.23157745,3.65987827 8.44816814,2.41879957 9.26633453,1.56892794 C9.86383571,0.948301625 10.6900674,0.635596872 11.5331552,0.711084327 C11.6288503,0.719810027 11.7113172,0.784919407 11.743997,0.878640967 C11.7768163,0.972101626 11.754546,1.07704194 11.6864236,1.14757227 L10.2981613,2.58971894 L10.6968768,4.09619228 L12.1027768,4.46432407 L13.491374,3.02200347 C13.5591615,2.95185 13.6601032,2.92854282 13.7501888,2.96272089 C13.8400791,2.9965511 13.9032898,3.0822427 13.9111876,3.18135622 C13.9840822,4.05720202 13.6828758,4.91539351 13.0855978,5.53601982 C12.2667338,6.38650022 11.0713128,6.61090437 10.0525467,6.21172531 C10.0183879,6.25610753 9.98127079,6.29927221 9.94203274,6.34032068 L9.17465814,7.17966929 C9.21933817,7.21480401 9.26273445,7.25234481 9.30331206,7.29466881 L13.6360189,11.7954489 C14.1213317,12.2995393 14.1213317,13.1175519 13.635991,13.6216713 C13.1505109,14.1261096 12.3630428,14.1261096 11.8775626,13.6216713 L7.54519064,9.12103618 C7.520018,9.09483009 7.49758031,9.06691365 7.47491936,9.03917114 L3.61117138,13.2652511 C3.60905041,13.2678311 3.60698524,13.2700633 3.60458519,13.2724694 C3.05971769,13.8383934 2.3122412,13.9835415 1.76715044,13.4174145 C1.22205968,12.8511137 1.31080577,12.0219692 1.8558128,11.4558423 C1.85740354,11.4542769 1.85905008,11.4523926 1.86078035,11.4506823 L6.2405394,7.08087465 L4.92374355,5.71299505 Z M2.6976013,12.4973948 C2.56093667,12.6342017 2.33926288,12.6342017 2.20248422,12.4973948 C2.06583859,12.3607019 2.06583859,12.1391769 2.20248422,12.002484 C2.33912984,11.8658862 2.56082264,11.8657911 2.6976013,12.002484 C2.8341329,12.1391959 2.8341329,12.3607019 2.6976013,12.4973948 Z" id="Shape"></path>
                                </g>
                            </g>
                        </g>
                    </g>
                </g>
            </g>
        </g>
    </g>
</svg>