<?xml version="1.0" encoding="UTF-8"?>
<svg width="197px" height="26px" viewBox="0 0 197 26" version="1.1" xmlns="http://www.w3.org/2000/svg" xmlns:xlink="http://www.w3.org/1999/xlink">
    <!-- Generator: Sketch 52.5 (67469) - http://www.bohemiancoding.com/sketch -->
    <title>CustomCook</title>
    <desc>Created with Sketch.</desc>
    <defs>
        <path d="M19.09,18.385 L21.225,22.585 C19.755,24.23 16.57,25.42 13.245,25.42 C5.65,25.42 0.4,20.38 0.4,12.75 C0.4,5.715 4.775,0.08 13.21,0.08 C16.465,0.08 19.23,1.2 20.7,2.635 L18.215,6.835 C16.885,6.03 15.52,5.33 13.21,5.33 C9.43,5.33 6.35,7.92 6.35,12.75 C6.35,17.09 9.36,20.17 13.77,20.17 C15.52,20.17 17.445,19.61 19.09,18.385 Z M38.55,9.25 L38.55,25 L33.3,25 L33.3,23.425 C32.53,24.405 31.165,25.42 28.785,25.42 C26.125,25.42 23.5,23.495 23.5,19.155 L23.5,9.25 L28.75,9.25 L28.75,18.035 C28.75,19.26 29.24,20.52 30.78,20.52 C31.655,20.52 32.495,20.1 33.3,19.085 L33.3,9.25 L38.55,9.25 Z M50.24,20.345 C50.24,18.665 41.91,19.715 41.91,13.975 C41.91,10.58 44.71,8.83 48.07,8.83 C51.605,8.83 53.635,10.055 54.685,10.965 L52.725,14.675 C51.815,14.045 50.1,13.205 48.385,13.205 C47.615,13.205 47.16,13.555 47.16,13.905 C47.16,15.55 55.49,14.5 55.49,20.1 C55.49,23.285 52.9,25.42 48.7,25.42 C45.375,25.42 42.26,23.635 41.525,22.515 L44.01,19.085 C44.99,20.03 47.475,21.045 49.05,21.045 C49.82,21.045 50.24,20.8 50.24,20.345 Z M58.115,19.015 L58.115,4.875 L63.365,4.875 L63.365,9.25 L67.74,9.25 L67.74,14.15 L63.365,14.15 L63.365,18.77 C63.365,19.715 63.68,20.52 64.38,20.52 C65.5,20.52 66.165,20.03 66.725,19.61 L68.3,23.635 C67.25,24.545 65.36,25.42 63.015,25.42 C59.445,25.42 58.115,23.04 58.115,19.015 Z M69.77,17.125 C69.77,12.4 73.13,8.83 78.52,8.83 C83.91,8.83 87.27,12.4 87.27,17.125 C87.27,21.85 83.91,25.42 78.52,25.42 C73.13,25.42 69.77,21.85 69.77,17.125 Z M75.37,17.125 C75.37,19.12 76.735,20.52 78.52,20.52 C80.305,20.52 81.67,19.26 81.67,17.125 C81.67,15.095 80.27,13.73 78.52,13.73 C76.84,13.73 75.37,14.99 75.37,17.125 Z M114.675,14.71 L114.675,25 L109.425,25 L109.425,16.11 C109.425,14.745 108.935,13.87 107.465,13.87 C106.38,13.87 105.435,14.43 105.085,15.235 L105.085,25 L99.835,25 L99.835,16.075 C99.835,14.745 99.24,13.87 97.98,13.87 C96.965,13.87 96.125,14.22 95.495,15.13 L95.495,25 L90.245,25 L90.245,9.25 L95.495,9.25 L95.495,10.72 C96.615,9.6 98.295,8.97 100.15,8.97 C102.565,8.97 104.07,10.02 104.63,11.28 C105.715,9.95 107.22,8.97 109.705,8.97 C112.505,8.97 114.675,10.405 114.675,14.71 Z M136.34,18.385 L138.475,22.585 C137.005,24.23 133.82,25.42 130.495,25.42 C122.9,25.42 117.65,20.38 117.65,12.75 C117.65,5.715 122.025,0.08 130.46,0.08 C133.715,0.08 136.48,1.2 137.95,2.635 L135.465,6.835 C134.135,6.03 132.77,5.33 130.46,5.33 C126.68,5.33 123.6,7.92 123.6,12.75 C123.6,17.09 126.61,20.17 131.02,20.17 C132.77,20.17 134.695,19.61 136.34,18.385 Z M139.175,17.125 C139.175,12.4 142.535,8.83 147.925,8.83 C153.315,8.83 156.675,12.4 156.675,17.125 C156.675,21.85 153.315,25.42 147.925,25.42 C142.535,25.42 139.175,21.85 139.175,17.125 Z M144.775,17.125 C144.775,19.12 146.14,20.52 147.925,20.52 C149.71,20.52 151.075,19.26 151.075,17.125 C151.075,15.095 149.675,13.73 147.925,13.73 C146.245,13.73 144.775,14.99 144.775,17.125 Z M158.775,17.125 C158.775,12.4 162.135,8.83 167.525,8.83 C172.915,8.83 176.275,12.4 176.275,17.125 C176.275,21.85 172.915,25.42 167.525,25.42 C162.135,25.42 158.775,21.85 158.775,17.125 Z M164.375,17.125 C164.375,19.12 165.74,20.52 167.525,20.52 C169.31,20.52 170.675,19.26 170.675,17.125 C170.675,15.095 169.275,13.73 167.525,13.73 C165.845,13.73 164.375,14.99 164.375,17.125 Z M179.25,25 L179.25,0.5 L184.5,0.5 L184.5,16.075 L188.805,9.25 L195.385,9.25 L190.275,16.355 L196.12,25 L189.4,25 L184.5,17.475 L184.5,25 L179.25,25 Z" id="path-1"></path>
    </defs>
    <g id="Page-1" stroke="none" stroke-width="1" fill="none" fill-rule="evenodd">
        <g id="Group-2-Copy" fill="#000000">
            <g id="CustomCook">
                <use xlink:href="#path-1"></use>
                <use xlink:href="#path-1"></use>
            </g>
        </g>
    </g>
</svg>